<svg width="512" height="512" viewBox="0 0 512 512" fill="none" xmlns="http://www.w3.org/2000/svg">
<path fill-rule="evenodd" clip-rule="evenodd" d="M258.5 460.5C248.886 460.573 240.219 457.74 232.5 452C186.277 422.109 141.444 390.275 98.0004 356.5C86.2254 342.944 87.0584 330.111 100.5 318C131.084 296.083 156.918 269.583 178 238.5C186.175 224.821 193.841 210.821 201 196.5C208.141 188.6 216.308 187.434 225.5 193C235.28 202.287 238.114 213.453 234 226.5C223.734 259.063 205.901 286.563 180.5 309C226.074 314.986 271.074 311.986 315.5 300C343.532 290.134 361.865 270.968 370.5 242.5C377.569 214.444 381.236 185.944 381.5 157C380.797 129.634 379.463 102.301 377.5 75.0001C378.967 53.7661 389.3 47.7661 408.5 57.0001C415.955 63.4081 420.122 71.5751 421 81.5001C422.507 113.487 423.174 145.487 423 177.5C423.458 210.308 417.791 241.974 406 272.5C389.136 305.525 363.636 329.359 329.5 344C304.518 354.33 278.518 360.33 251.5 362C227.182 363.131 202.849 363.797 178.5 364C203.735 376.367 226.235 392.533 246 412.5C254.436 422.616 260.769 433.95 265 446.5C266.811 453.204 264.645 457.871 258.5 460.5Z" fill="white"/>
</svg>
