<svg width="184" height="184" viewBox="0 0 184 184" fill="none" xmlns="http://www.w3.org/2000/svg">
<path d="M140.516 38.0938C140.715 38.2537 140.915 38.4136 141.12 38.5783C153.671 48.7136 159.706 65.7486 161.551 81.428C163.438 100.781 154.783 120.937 142.802 135.859C132.928 147.799 120.145 155.634 105.073 159.338C104.58 159.46 104.58 159.46 104.077 159.585C97.6528 161.059 91.2291 161.55 84.6557 161.494C84.3028 161.493 83.9499 161.491 83.5862 161.489C78.4194 161.46 73.3589 161.319 68.2817 160.281C67.7236 160.171 67.7236 160.171 67.1543 160.059C53.5277 157.318 41.6662 151.867 33.7494 140C24.0172 124.932 19.9263 107.236 23.4716 89.5366C24.1972 86.2242 25.1575 82.9948 26.2348 79.7813C26.3403 79.4653 26.4458 79.1493 26.5545 78.8237C30.165 68.2458 35.8023 58.3165 42.7661 49.5938C42.9242 49.3941 43.0822 49.1945 43.2451 48.9888C49.0119 41.7619 55.8411 35.7017 63.9692 31.2657C64.1945 31.1422 64.4198 31.0187 64.652 30.8914C89.8441 17.2694 118.518 20.371 140.516 38.0938ZM59.2973 50.6719C58.9172 51.0187 58.9172 51.0187 58.5294 51.3724C47.1127 62.0481 37.4918 84.3764 36.9122 99.9344C36.6506 112.4 40.054 126.109 48.7709 135.414C55.8096 142.605 65.2825 145.093 74.9975 145.974C75.4964 146.019 75.4964 146.019 76.0054 146.065C92.3344 147.397 109.19 144.673 122.547 134.766C123.032 134.411 123.032 134.411 123.526 134.05C135.848 124.497 143.647 110.911 145.759 95.5102C146.003 93.2762 146.045 91.0563 146.041 88.8106C146.041 88.5709 146.041 88.3312 146.041 88.0843C145.992 74.8212 141.823 59.9009 132.25 50.3126C131.96 50.0179 131.67 49.7233 131.37 49.4197C125.703 43.9645 118.327 40.4758 110.688 38.8126C110.338 38.7361 109.987 38.6597 109.627 38.5809C93.0453 35.2884 71.5805 38.6765 59.2973 50.6719Z" fill="#1B95FF"/>
<path d="M96.9795 56.7438C101.826 59.1845 105.838 62.519 109.933 66.0302C111.755 67.5812 113.653 69.0271 115.561 70.4703C117.257 71.7544 118.92 73.0709 120.57 74.4132C122.951 76.3426 125.429 78.1119 127.947 79.8571C134.527 84.4435 134.527 84.4435 135.484 88.4063C135.794 90.7485 135.142 92.8182 134.047 94.8751C132.843 96.431 131.486 97.8042 130.094 99.1876C129.695 99.5947 129.296 100.002 128.898 100.41C126.856 102.491 124.778 104.496 122.547 106.375C122.17 106.698 121.794 107.021 121.418 107.345C119.156 109.292 116.883 111.226 114.603 113.151C113.386 114.18 112.173 115.213 110.964 116.251C110.541 116.614 110.118 116.977 109.694 117.339C108.659 118.224 107.628 119.114 106.608 120.016C103.219 122.988 99.7514 125.935 95.0308 125.857C92.3327 125.623 90.2163 124.558 88.4063 122.547C87.4525 121.013 87.4631 119.271 87.6875 117.516C88.7233 113.831 91.4761 110.719 94.1857 108.13C94.8512 107.477 95.4452 106.798 96.043 106.083C98.4082 103.338 101.193 100.822 104.219 98.8282C100.711 98.7061 97.2929 99.1591 93.8193 99.5919C93.4967 99.6315 93.1741 99.6712 92.8418 99.7121C84.2082 100.78 75.6503 102.24 67.1343 104.017C62.1045 105.064 56.1986 106.01 51.5479 103.186C49.8483 101.704 49.3396 100.239 49.1221 98.0645C49.3115 95.7154 50.0124 93.5294 51.7725 91.8878C63.3374 83.2323 85.1719 82.6434 98.9744 82.0601C100.085 82.0099 101.001 81.932 102.063 81.5782C101.873 81.4664 101.684 81.3546 101.488 81.2394C84.0758 70.9412 84.0758 70.9412 82.0863 64.3493C81.6228 62.0447 81.6992 59.8424 82.8682 57.7724C86.3622 53.417 92.5953 54.6284 96.9795 56.7438Z" fill="#1B95FF"/>
</svg>
