<svg width="64" height="64" viewBox="0 0 64 64" fill="none" xmlns="http://www.w3.org/2000/svg">
<path fill-rule="evenodd" clip-rule="evenodd" d="M20.3207 11.6802C26.1771 12.0286 32.0439 12.2952 37.9207 12.4802C38.9847 13.3234 39.1447 14.3367 38.4007 15.5202C37.8769 16.2594 37.1834 16.7394 36.3207 16.9602C31.7305 16.9995 27.1438 16.8395 22.5607 16.4802C20.8757 16.4061 19.4357 16.9395 18.2407 18.0802C15.618 26.785 15.5113 35.5317 17.9207 44.3202C19.0226 45.3999 20.3559 45.9864 21.9207 46.0802C28.9288 47.0955 35.9687 47.4155 43.0407 47.0402C45.2849 46.3477 46.4049 44.8011 46.4007 42.4002C47.1965 37.8395 47.7831 33.253 48.1607 28.6402C49.2737 28.5391 50.3405 28.6991 51.3607 29.1202C51.8551 29.7032 52.0685 30.3965 52.0007 31.2002C51.5053 36.3205 51.0253 41.4405 50.5607 46.5602C49.8954 49.8927 47.8689 51.5992 44.4807 51.6802C43.1501 51.4968 41.817 51.3368 40.4807 51.2002C34.8273 51.0936 29.1741 50.9867 23.5207 50.8802C20.1912 50.8319 16.9912 50.1919 13.9207 48.9602C12.5429 46.6661 11.8496 44.1595 11.8407 41.4402C11.5394 33.4287 11.6461 25.4287 12.1607 17.4402C12.6933 14.9881 14.1333 13.3347 16.4807 12.4802C17.8046 12.2116 19.0846 11.9449 20.3207 11.6802Z" fill="#4A3D2A"/>
<path fill-rule="evenodd" clip-rule="evenodd" d="M46.5598 16.8002C50.4647 16.5232 51.4782 18.1232 49.5998 21.6002C42.9876 27.5704 37.0676 34.1304 31.8398 41.2802C31.0301 41.7352 30.1768 41.8418 29.2798 41.6002C26.0264 37.4936 22.7731 33.3867 19.5198 29.2802C18.5126 26.2309 19.6326 24.8975 22.8798 25.2802C25.3801 28.2608 27.9401 31.1942 30.5598 34.0802C35.0458 29.1144 39.4727 24.101 43.8398 19.0402C44.6807 18.1728 45.5873 17.4262 46.5598 16.8002Z" fill="#1B95FF"/>
</svg>
