<svg width="256" height="256" viewBox="0 0 256 256" fill="none" xmlns="http://www.w3.org/2000/svg">
<g clip-path="url(#clip0_1_307)">
<path d="M151.438 7.43751C152.301 8.11363 153.155 8.80104 154 9.50001C154.42 9.83259 154.839 10.1652 155.272 10.5078C166.595 19.9878 171.654 35.791 173.161 50.0188C173.303 51.627 173.428 53.2354 173.543 54.8457C173.586 55.4352 173.628 56.0246 173.672 56.6319C174.064 62.4238 174.196 68.1961 174.188 74C174.189 74.8353 174.189 74.8353 174.189 75.6874C174.183 89.1308 173.474 102.547 172.756 115.968C172.688 117.237 172.621 118.507 172.554 119.777C172.509 120.612 172.464 121.447 172.418 122.282C172.163 126.942 171.97 131.594 171.912 136.261C171.902 136.907 171.902 136.907 171.892 137.566C171.862 139.611 171.842 141.656 171.845 143.702C171.78 152.367 168.243 160.01 162.289 166.309C158.392 169.91 153.942 172.58 149 174.5C148.627 174.648 148.254 174.795 147.869 174.947C141.815 177.154 135.37 177.285 129 177.5C128.415 177.521 127.83 177.543 127.227 177.564C115.962 177.775 105.545 175.082 97.1487 167.194C81.2736 151.633 79.4647 126.417 79.0002 105.5C78.9892 105.085 78.9783 104.669 78.967 104.241C78.6135 89.0021 79.739 73.6718 80.6601 58.4658C80.923 54.0929 81.1088 49.7222 81.2502 45.3438C81.7187 32.1631 84.8364 19.9793 94.5002 10.5C109.604 -2.94344 134.863 -4.2322 151.438 7.43751ZM103.951 23.8047C101.368 27.0507 99.9147 29.9802 99.0002 34C99.6128 33.9843 99.6128 33.9843 100.238 33.9683C102.096 33.9266 103.954 33.9007 105.813 33.875C106.777 33.8499 106.777 33.8499 107.76 33.8242C113.671 33.763 113.671 33.763 116 36C117.358 37.8751 117.628 40.2542 117.395 42.5274C116.898 45.009 116.016 46.3772 114 48C112.294 48.5688 110.755 48.7087 108.963 48.877C108.621 48.9096 108.279 48.9421 107.927 48.9757C106.837 49.0792 105.747 49.1803 104.656 49.2813C103.917 49.3511 103.177 49.4211 102.437 49.4912C100.625 49.6627 98.8125 49.8319 97.0002 50C96.5192 53.1868 96.4469 56.2797 96.5002 59.5C96.9007 59.4922 97.3012 59.4843 97.7139 59.4762C99.5489 59.4448 101.384 59.4254 103.219 59.4063C103.849 59.3937 104.479 59.3811 105.128 59.3682C108.581 59.3411 111.89 59.3212 115 61C116.838 63.0215 117.407 64.787 117.5 67.5C117.293 69.8112 116.82 71.4249 115.031 72.9688C113.025 74.3203 111.642 74.5671 109.278 74.6406C108.469 74.6687 108.469 74.6687 107.645 74.6973C106.8 74.7234 106.8 74.7234 105.938 74.75C99.8731 74.4316 99.8731 74.4316 94.5002 76C94.3819 77.263 94.2893 78.5155 94.2189 79.7813C94.1973 80.1367 94.1757 80.4922 94.1535 80.8584C94.1003 81.7388 94.05 82.6194 94.0002 83.5C94.4791 83.4895 94.958 83.4791 95.4513 83.4683C97.2442 83.4318 99.0369 83.409 100.83 83.3902C101.603 83.3801 102.376 83.3665 103.149 83.3491C111.194 83.1725 111.194 83.1725 114.5 85.5C115.875 87.3903 116.278 89.1081 116.174 91.4551C115.862 93.3315 115.218 95.0312 114 96.5C111.67 97.9025 109.547 98.2926 106.879 98.4746C106.495 98.5058 106.111 98.537 105.715 98.5691C104.498 98.6665 103.28 98.7553 102.063 98.8438C101.233 98.9086 100.404 98.974 99.5744 99.0401C97.5501 99.1999 95.5254 99.3521 93.5002 99.5C93.0837 117.433 93.6213 140.932 106.793 154.918C112.84 160.339 119.697 163.025 127.83 162.693C137.468 162.009 146.859 157.931 153.612 151.057C155.416 148.912 155.651 147.238 155.781 144.441C155.799 144.075 155.818 143.708 155.836 143.33C155.897 142.054 155.949 140.777 156 139.5C156.02 139.021 156.04 138.542 156.06 138.049C156.22 134.179 156.361 130.308 156.5 126.438C156.544 125.236 156.588 124.034 156.632 122.832C156.945 114.222 157.24 105.612 157.5 97C157.031 96.9927 156.562 96.9854 156.079 96.9779C154.329 96.9473 152.579 96.9102 150.829 96.8688C150.074 96.8522 149.318 96.8382 148.562 96.8268C147.472 96.8099 146.383 96.7838 145.293 96.7559C144.639 96.7428 143.984 96.7297 143.31 96.7162C140.921 96.4308 139.172 95.7874 137.594 93.9375C136.503 91.2956 136.352 88.9042 136.813 86.0938C137.73 83.9672 138.961 83.0199 141 82C142.276 81.9218 143.54 81.8709 144.817 81.8418C145.192 81.8314 145.568 81.821 145.956 81.8103C147.158 81.7776 148.36 81.7481 149.563 81.7188C150.377 81.6972 151.192 81.6754 152.006 81.6533C154.004 81.5994 156.002 81.5498 158 81.5C158 78.53 158 75.56 158 72.5C156.212 72.4807 156.212 72.4807 154.387 72.461C153.225 72.4417 152.063 72.4191 150.902 72.3963C150.098 72.3822 149.294 72.3716 148.49 72.3645C147.33 72.3537 146.171 72.3304 145.012 72.3047C144.656 72.3041 144.299 72.3035 143.932 72.3028C141.403 72.2295 139.947 71.5948 138 70C136.603 67.9047 136.471 65.9921 136.5 63.5C136.897 61.5267 137.527 59.9583 139 58.5313C141.03 57.4528 142.905 57.3965 145.147 57.3418C145.5 57.3314 145.853 57.321 146.216 57.3103C147.342 57.2777 148.468 57.2482 149.594 57.2188C150.358 57.1972 151.122 57.1754 151.886 57.1533C153.757 57.0998 155.629 57.0492 157.5 57C157.506 56.2142 157.51 55.4284 157.514 54.6426C157.516 54.205 157.519 53.7674 157.522 53.3165C157.608 50.1821 157.608 50.1821 156.5 47.5C155.348 47.4388 154.193 47.4101 153.039 47.3945C152.323 47.3805 151.607 47.3662 150.891 47.3516C149.76 47.331 148.629 47.3126 147.497 47.2993C146.407 47.2855 145.317 47.2625 144.227 47.2383C143.573 47.2284 142.919 47.2185 142.245 47.2083C139.8 46.9164 138.073 45.8875 136.5 44C135.645 41.4355 135.495 38.4799 136.377 35.8965C137.316 34.1473 138.166 33.1985 140 32.5C141.329 32.3406 141.329 32.3406 142.82 32.293C143.623 32.264 143.623 32.264 144.442 32.2344C144.997 32.2189 145.553 32.2035 146.125 32.1875C146.97 32.1585 146.97 32.1585 147.832 32.1289C149.221 32.0818 150.611 32.039 152 32C148.541 24.7361 143.54 19.8711 135.944 16.9824C125.266 13.4137 111.778 15.2345 103.951 23.8047Z" fill="#4A3D2A"/>
<path d="M62.1875 138.563C62.5523 138.584 62.9171 138.606 63.293 138.629C65.0976 139.184 66.3327 140.045 67.5 141.5C68.3187 143.258 68.8537 145.081 69.4063 146.938C71.4745 153.35 74.1378 158.907 78.8926 163.791C79.5 164.5 79.5 164.5 79.5 165.5C79.7804 165.618 80.0608 165.736 80.3496 165.857C81.7678 166.65 82.7468 167.643 83.9063 168.781C93.1969 177.514 106.638 182.023 119 184C119.566 184.091 120.132 184.182 120.715 184.275C137.613 186.279 156.529 183.799 170.406 173.281C171.11 172.694 171.807 172.1 172.5 171.5C172.904 171.173 173.308 170.846 173.725 170.51C181.288 164.151 185.193 155.56 187.158 146.072C188.262 140.816 188.262 140.816 190.875 139.094C193.79 138.029 195.801 138.289 198.594 139.531C200.497 140.571 201.823 141.473 202.723 143.477C204.989 151.84 199.944 163.008 195.871 170.131C185.991 185.66 170.465 194.679 152.78 198.739C148.069 199.756 143.328 200.5 138.5 200.5C138.5 213.37 138.5 226.24 138.5 239.5C140.975 239.335 143.45 239.17 146 239C147.426 238.929 148.853 238.872 150.281 238.844C150.921 238.825 151.561 238.806 152.221 238.787C154.68 239.081 156.126 240.186 157.906 241.844C159.147 244.26 159.126 246.741 158.688 249.375C157.662 251.798 156.157 253.062 154 254.5C151.526 255.058 149.024 255.15 146.498 255.268C146.052 255.289 145.606 255.311 145.147 255.333C135.014 255.81 124.881 256.121 114.736 256.177C113.561 256.184 112.387 256.194 111.212 256.208C109.563 256.226 107.913 256.23 106.264 256.23C105.774 256.238 105.284 256.245 104.78 256.252C101.942 256.233 100.216 255.959 98 254C96.5674 251.517 96.0966 249.307 96.5 246.5C97.3214 243.906 98.212 242.487 100.5 241C101.855 240.548 102.701 240.427 104.098 240.397C104.524 240.387 104.95 240.377 105.389 240.367C105.835 240.359 106.281 240.35 106.74 240.342C107.152 240.332 107.563 240.323 107.987 240.314C109.522 240.279 111.058 240.249 112.594 240.219C116.028 240.147 119.462 240.074 123 240C122.835 226.965 122.67 213.93 122.5 200.5C119.035 200.005 115.57 199.51 112 199C96.7899 195.392 82.6112 189.729 71 179C70.6134 178.646 70.6134 178.646 70.219 178.285C62.0361 170.718 54.0307 159.24 52.8809 147.816C52.7957 144.938 52.9856 143.226 55 141C57.3812 139.165 59.1935 138.321 62.1875 138.563Z" fill="#4A3D2A"/>
</g>
<defs>
<clipPath id="clip0_1_307">
<rect width="256" height="256" fill="white"/>
</clipPath>
</defs>
</svg>
