<svg width="256" height="256" viewBox="0 0 256 256" fill="none" xmlns="http://www.w3.org/2000/svg">
<g clip-path="url(#clip0_39_97)">
<path d="M151.438 7.43727C152.301 8.11338 153.155 8.8008 154 9.49977C154.42 9.83235 154.839 10.1649 155.272 10.5076C166.595 19.9875 171.654 35.7907 173.161 50.0186C173.303 51.6268 173.428 53.2352 173.543 54.8455C173.586 55.4349 173.628 56.0244 173.672 56.6317C174.064 62.4236 174.196 68.1958 174.188 73.9998C174.189 74.835 174.189 74.835 174.189 75.6871C174.183 89.1305 173.474 102.547 172.756 115.968C172.688 117.237 172.621 118.507 172.554 119.776C172.509 120.612 172.464 121.447 172.418 122.282C172.163 126.942 171.97 131.594 171.912 136.261C171.902 136.907 171.902 136.907 171.892 137.565C171.862 139.611 171.842 141.656 171.845 143.702C171.78 152.367 168.243 160.01 162.289 166.308C158.392 169.91 153.942 172.579 149 174.5C148.627 174.647 148.254 174.795 147.869 174.947C141.815 177.154 135.37 177.285 129 177.5C128.415 177.521 127.83 177.542 127.227 177.564C115.962 177.774 105.545 175.082 97.1487 167.194C81.2736 151.633 79.4647 126.417 79.0002 105.5C78.9892 105.084 78.9783 104.669 78.967 104.241C78.6135 89.0019 79.739 73.6716 80.6601 58.4656C80.923 54.0926 81.1088 49.722 81.2502 45.3435C81.7187 32.1629 84.8364 19.979 94.5002 10.4998C109.604 -2.94368 134.863 -4.23244 151.438 7.43727ZM103.951 23.8045C101.368 27.0505 99.9147 29.98 99.0002 33.9998C99.6128 33.9841 99.6128 33.9841 100.238 33.968C102.096 33.9263 103.954 33.9004 105.813 33.8748C106.777 33.8496 106.777 33.8496 107.76 33.824C113.671 33.7627 113.671 33.7627 116 35.9998C117.358 37.8748 117.628 40.254 117.395 42.5271C116.898 45.0087 116.016 46.3769 114 47.9998C112.294 48.5685 110.755 48.7085 108.963 48.8767C108.621 48.9093 108.279 48.9419 107.927 48.9755C106.837 49.079 105.747 49.18 104.656 49.281C103.917 49.3508 103.177 49.4208 102.437 49.491C100.625 49.6624 98.8125 49.8317 97.0002 49.9998C96.5192 53.1866 96.4469 56.2794 96.5002 59.4998C96.9007 59.4919 97.3012 59.4841 97.7139 59.476C99.5489 59.4446 101.384 59.4252 103.219 59.406C103.849 59.3935 104.479 59.3809 105.128 59.3679C108.581 59.3409 111.89 59.3209 115 60.9998C116.838 63.0213 117.407 64.7868 117.5 67.4998C117.293 69.811 116.82 71.4246 115.031 72.9685C113.025 74.3201 111.642 74.5669 109.278 74.6404C108.469 74.6684 108.469 74.6684 107.645 74.697C106.8 74.7231 106.8 74.7231 105.938 74.7498C99.8731 74.4313 99.8731 74.4313 94.5002 75.9998C94.3819 77.2628 94.2893 78.5153 94.2189 79.781C94.1973 80.1365 94.1757 80.4919 94.1535 80.8582C94.1003 81.7386 94.05 82.6192 94.0002 83.4998C94.4791 83.4893 94.958 83.4788 95.4513 83.468C97.2442 83.4316 99.0369 83.4088 100.83 83.3899C101.603 83.3799 102.376 83.3663 103.149 83.3489C111.194 83.1723 111.194 83.1723 114.5 85.4998C115.875 87.39 116.278 89.1078 116.174 91.4548C115.862 93.3313 115.218 95.0309 114 96.4998C111.67 97.9022 109.547 98.2923 106.879 98.4744C106.495 98.5056 106.111 98.5367 105.715 98.5688C104.498 98.6662 103.28 98.755 102.063 98.8435C101.233 98.9084 100.404 98.9738 99.5744 99.0398C97.5501 99.1997 95.5254 99.3518 93.5002 99.4998C93.0837 117.432 93.6213 140.932 106.793 154.918C112.84 160.338 119.697 163.025 127.83 162.693C137.468 162.009 146.859 157.931 153.612 151.056C155.416 148.911 155.651 147.238 155.781 144.441C155.799 144.075 155.818 143.708 155.836 143.33C155.897 142.054 155.949 140.777 156 139.5C156.02 139.021 156.04 138.542 156.06 138.049C156.22 134.179 156.361 130.308 156.5 126.437C156.544 125.235 156.588 124.033 156.632 122.832C156.945 114.222 157.24 105.611 157.5 96.9998C157.031 96.9925 156.562 96.9852 156.079 96.9777C154.329 96.947 152.579 96.9099 150.829 96.8685C150.074 96.852 149.318 96.8379 148.562 96.8266C147.472 96.8097 146.383 96.7835 145.293 96.7556C144.639 96.7425 143.984 96.7294 143.31 96.716C140.921 96.4306 139.172 95.7872 137.594 93.9373C136.503 91.2953 136.352 88.904 136.813 86.0935C137.73 83.9669 138.961 83.0196 141 81.9998C142.276 81.9216 143.54 81.8707 144.817 81.8416C145.192 81.8312 145.568 81.8208 145.956 81.8101C147.158 81.7774 148.36 81.7479 149.563 81.7185C150.377 81.6969 151.192 81.6751 152.006 81.6531C154.004 81.5991 156.002 81.5496 158 81.4998C158 78.5298 158 75.5598 158 72.4998C156.212 72.4804 156.212 72.4804 154.387 72.4607C153.225 72.4415 152.063 72.4189 150.902 72.396C150.098 72.3819 149.294 72.3713 148.49 72.3643C147.33 72.3535 146.171 72.3302 145.012 72.3045C144.656 72.3038 144.299 72.3032 143.932 72.3026C141.403 72.2293 139.947 71.5946 138 69.9998C136.603 67.9044 136.471 65.9918 136.5 63.4998C136.897 61.5265 137.527 59.958 139 58.531C141.03 57.4526 142.905 57.3963 145.147 57.3416C145.5 57.3312 145.853 57.3208 146.216 57.3101C147.342 57.2774 148.468 57.2479 149.594 57.2185C150.358 57.1969 151.122 57.1751 151.886 57.1531C153.757 57.0996 155.629 57.0489 157.5 56.9998C157.506 56.214 157.51 55.4282 157.514 54.6423C157.516 54.2048 157.519 53.7672 157.522 53.3163C157.608 50.1819 157.608 50.1819 156.5 47.4998C155.348 47.4386 154.193 47.4099 153.039 47.3943C152.323 47.3803 151.607 47.3659 150.891 47.3513C149.76 47.3307 148.629 47.3123 147.497 47.2991C146.407 47.2852 145.317 47.2623 144.227 47.2381C143.573 47.2281 142.919 47.2182 142.245 47.208C139.8 46.9162 138.073 45.8873 136.5 43.9998C135.645 41.4352 135.495 38.4797 136.377 35.8963C137.316 34.147 138.166 33.1982 140 32.4998C141.329 32.3403 141.329 32.3403 142.82 32.2927C143.623 32.2637 143.623 32.2637 144.442 32.2341C144.997 32.2187 145.553 32.2032 146.125 32.1873C146.97 32.1583 146.97 32.1583 147.832 32.1287C149.221 32.0816 150.611 32.0388 152 31.9998C148.541 24.7358 143.54 19.8709 135.944 16.9822C125.266 13.4134 111.778 15.2342 103.951 23.8045Z" fill="#1B95FF"/>
<path d="M62.188 138.562C62.5528 138.584 62.9176 138.606 63.2935 138.629C65.0981 139.184 66.3332 140.045 67.5005 141.5C68.3192 143.258 68.8542 145.081 69.4067 146.937C71.475 153.35 74.1383 158.907 78.8931 163.791C79.5005 164.5 79.5005 164.5 79.5005 165.5C79.7809 165.618 80.0612 165.736 80.3501 165.857C81.7683 166.649 82.7473 167.643 83.9067 168.781C93.1974 177.514 106.638 182.022 119 184C119.566 184.091 120.132 184.182 120.715 184.275C137.614 186.279 156.529 183.799 170.407 173.281C171.11 172.694 171.808 172.1 172.5 171.5C172.905 171.173 173.309 170.846 173.725 170.51C181.289 164.15 185.193 155.56 187.158 146.072C188.262 140.816 188.262 140.816 190.876 139.094C193.791 138.028 195.802 138.289 198.594 139.531C200.497 140.571 201.824 141.472 202.723 143.476C204.99 151.84 199.945 163.007 195.872 170.131C185.991 185.66 170.465 194.679 152.78 198.739C148.07 199.756 143.328 200.5 138.5 200.5C138.5 213.37 138.5 226.24 138.5 239.5C140.975 239.335 143.45 239.17 146 239C147.427 238.928 148.854 238.871 150.282 238.844C150.922 238.825 151.562 238.806 152.221 238.787C154.681 239.081 156.126 240.186 157.907 241.844C159.147 244.259 159.127 246.741 158.688 249.375C157.663 251.798 156.158 253.062 154 254.5C151.526 255.057 149.024 255.15 146.499 255.267C146.053 255.289 145.607 255.311 145.148 255.333C135.014 255.81 124.881 256.12 114.736 256.177C113.562 256.184 112.387 256.194 111.213 256.208C109.563 256.226 107.914 256.23 106.264 256.23C105.775 256.237 105.285 256.245 104.78 256.252C101.942 256.233 100.216 255.959 98.0005 254C96.5679 251.517 96.0971 249.307 96.5005 246.5C97.3219 243.906 98.2125 242.487 100.5 241C101.855 240.548 102.701 240.426 104.099 240.397C104.525 240.387 104.951 240.377 105.39 240.367C105.836 240.358 106.281 240.35 106.741 240.342C107.152 240.332 107.563 240.323 107.987 240.313C109.523 240.279 111.059 240.249 112.594 240.219C116.028 240.146 119.462 240.074 123 240C122.835 226.965 122.67 213.93 122.5 200.5C119.035 200.005 115.57 199.51 112 199C96.7904 195.392 82.6117 189.729 71.0005 179C70.6139 178.646 70.6139 178.646 70.2195 178.285C62.0366 170.717 54.0312 159.24 52.8814 147.816C52.7962 144.938 52.9861 143.226 55.0005 141C57.3817 139.164 59.194 138.321 62.188 138.562Z" fill="#1B95FF"/>
</g>
<defs>
<clipPath id="clip0_39_97">
<rect width="256" height="256" fill="white"/>
</clipPath>
</defs>
</svg>
