<svg width="64" height="64" viewBox="0 0 64 64" fill="none" xmlns="http://www.w3.org/2000/svg">
<path fill-rule="evenodd" clip-rule="evenodd" d="M20.3207 11.6802C26.1771 12.0286 32.0439 12.2952 37.9207 12.4802C43.041 12.9755 42.2704 13.1478 47.39 13.6124C50.7225 14.2777 52.4291 16.3043 52.51 19.6924C52.3267 21.023 52.1667 22.3561 52.03 23.6924C51.5347 28.8128 51.0253 41.4405 50.5607 46.5602C49.8954 49.8927 47.8689 51.5992 44.4807 51.6802C43.1501 51.4968 41.817 51.3368 40.4807 51.2002C34.8273 51.0936 29.1741 50.9867 23.5207 50.8802C20.1912 50.8319 16.9912 50.1919 13.9207 48.9602C12.5429 46.6661 11.8496 44.1595 11.8407 41.4402C11.5394 33.4287 11.6461 25.4287 12.1607 17.4402C12.6933 14.9881 14.1333 13.3347 16.4807 12.4802C17.8046 12.2116 19.0846 11.9449 20.3207 11.6802ZM22.5607 16.4802C27.1438 16.8395 31.7305 16.9995 36.3207 16.9602C40.9335 17.3378 38.6694 16.9766 43.23 17.7724C45.631 17.7683 47.1776 18.8883 47.87 21.1324C48.2454 28.2044 48.1607 28.6402 48.1607 28.6402C47.7831 33.253 47.1965 37.8395 46.4007 42.4002C46.4049 44.8011 45.2849 46.3477 43.0407 47.0402C35.9687 47.4155 28.9288 47.0955 21.9207 46.0802C20.3559 45.9864 19.0226 45.3999 17.9207 44.3202C15.5113 35.5317 15.618 26.785 18.2407 18.0802C19.4357 16.9395 20.8757 16.4061 22.5607 16.4802Z" fill="#4A3D2A"/>
</svg>
